<?xml version="1.0" standalone="no"?>
<!DOCTYPE svg PUBLIC "-//W3C//DTD SVG 20010904//EN"
 "http://www.w3.org/TR/2001/REC-SVG-20010904/DTD/svg10.dtd">
<svg version="1.0" xmlns="http://www.w3.org/2000/svg"
 width="802.000000pt" height="158.000000pt" viewBox="0 0 802.000000 158.000000"
 preserveAspectRatio="xMidYMid meet">
<metadata>
Created by potrace 1.16, written by Peter Selinger 2001-2019
</metadata>
<g transform="translate(0.000000,158.000000) scale(0.100000,-0.100000)"
fill="#000000" stroke="none">
<path d="M0 790 l0 -790 4010 0 4010 0 0 249 c0 212 -2 249 -15 247 -20 -3
-55 -36 -52 -50 1 -6 -4 -10 -11 -8 -7 1 -29 -6 -50 -17 -102 -51 -356 -53
-449 -3 -12 7 -25 12 -30 12 -12 -1 28 -22 67 -37 19 -6 27 -12 17 -13 -23 0
-101 39 -93 47 10 10 -36 53 -56 53 -10 0 -18 5 -18 11 0 5 6 7 13 3 7 -4 9
-3 4 2 -5 5 -14 9 -20 9 -5 0 -12 6 -14 13 -3 6 0 12 5 12 7 0 7 11 1 32 -5
18 -9 46 -9 61 l0 28 98 -3 c93 -3 97 -4 100 -27 3 -17 0 -21 -10 -15 -7 4 -5
-2 5 -14 32 -35 86 -55 157 -55 72 -1 131 15 152 40 7 9 8 14 3 11 -7 -4 -9 8
-7 32 2 21 -1 41 -7 44 -5 4 -43 15 -83 26 -40 10 -64 19 -52 19 32 1 127 -29
147 -47 16 -14 17 -14 12 0 -9 22 -75 45 -165 58 -136 21 -216 50 -275 101
-21 19 -35 28 -30 20 5 -10 4 -12 -4 -7 -19 12 -42 66 -38 89 4 18 4 18 6 -5
0 -15 4 -29 9 -31 4 -3 6 25 4 63 -3 47 1 77 12 98 8 16 12 32 9 36 -14 13
101 106 131 106 6 0 -12 -13 -39 -29 -28 -16 -58 -37 -65 -47 -8 -10 1 -6 21
9 51 38 93 54 185 67 96 14 213 1 284 -33 65 -30 67 -31 45 -13 -20 17 -20 17
1 7 11 -5 27 -18 35 -27 12 -16 12 -17 -4 -11 -11 4 -16 3 -12 -3 3 -6 15 -10
27 -10 14 0 18 -5 14 -15 -3 -8 0 -14 6 -12 6 1 13 -4 16 -12 3 -9 0 -11 -8
-6 -10 6 -12 4 -7 -9 4 -10 10 -30 14 -44 l7 -27 7 25 c4 14 7 150 8 303 l1
277 -4010 0 -4010 0 0 -790z m1153 523 c3 -5 -23 -7 -56 -5 -104 5 -116 9 -30
11 45 0 84 -2 86 -6z m32 -318 l0 -300 -192 -3 -193 -2 2 97 2 98 6 -95 6 -95
3 93 c2 50 4 98 5 105 1 8 23 13 64 15 l62 3 2 187 2 187 6 -190 6 -190 2 186
c1 132 6 189 15 198 8 9 40 11 107 9 l95 -3 0 -300z m5720 215 c34 -8 31 -8
-20 -4 -69 6 -204 -17 -237 -41 -13 -8 -27 -15 -33 -15 -30 0 68 44 124 55 79
16 113 17 166 5z m895 -10 c25 -7 19 -7 -25 -2 -33 4 -98 7 -145 6 -65 -1 -76
1 -45 7 45 8 163 3 215 -11z m-867 -14 c94 -18 146 -44 215 -110 31 -28 52
-45 47 -37 -5 10 -4 12 4 7 17 -11 73 -126 67 -139 -2 -7 -5 -4 -5 5 -1 9 -5
19 -10 23 -5 3 -5 -11 1 -32 10 -38 6 -222 -6 -258 -3 -11 1 -6 9 10 l16 30
-6 -29 c-4 -16 -13 -39 -22 -50 -15 -20 -15 -20 -9 -1 6 20 6 20 -9 1 -17 -22
-20 -40 -5 -31 6 3 10 2 10 -4 0 -11 -19 -25 -35 -26 -5 -1 -9 -7 -7 -14 3
-16 -52 -77 -83 -93 -11 -6 3 11 30 37 l50 47 -50 -40 c-64 -50 -97 -67 -172
-86 -152 -40 -311 -3 -419 96 -24 22 -44 37 -44 32 -1 -5 -10 2 -21 15 -15 19
-17 26 -7 32 10 7 9 9 -3 9 -8 0 -23 16 -32 35 -21 44 -22 59 -1 25 9 -14 13
-17 10 -7 -3 10 -9 37 -13 60 -6 37 -7 39 -13 17 -11 -42 -21 89 -10 135 8 35
8 32 5 -25 -3 -53 -3 -58 4 -25 17 80 22 141 12 125 -17 -24 -13 6 4 41 9 16
19 28 23 25 5 -3 14 5 22 17 12 20 12 21 -3 8 -10 -7 -17 -9 -17 -3 0 5 29 34
65 63 36 29 65 55 65 57 0 5 -23 -12 -65 -47 -16 -15 -23 -18 -16 -8 17 22 98
87 88 70 -11 -17 -7 -17 55 12 49 22 126 41 185 44 12 0 55 -5 96 -13z m50 7
c-7 -2 -19 -2 -25 0 -7 3 -2 5 12 5 14 0 19 -2 13 -5z m550 0 c-7 -2 -19 -2
-25 0 -7 3 -2 5 12 5 14 0 19 -2 13 -5z m-2139 -19 c26 -9 45 -18 43 -20 -2
-3 -17 1 -33 8 -19 8 -114 14 -284 18 l-255 6 241 2 c199 2 249 -1 288 -14z
m781 0 c17 -8 21 -11 10 -7 -11 4 -137 10 -280 13 l-260 6 250 2 c202 1 256
-2 280 -14z m878 -5 c50 -26 137 -96 137 -112 0 -6 -18 7 -39 29 -22 21 -66
54 -98 71 -65 37 -65 45 0 12z m823 5 c18 -14 18 -14 -6 -3 -31 14 -36 19 -24
19 6 0 19 -7 30 -16z m-2495 -18 c24 -7 53 -17 63 -21 15 -7 17 -5 11 5 -14
23 51 -27 84 -65 17 -20 31 -41 31 -47 0 -7 -7 -3 -15 8 -12 16 -12 11 2 -31
20 -62 27 -71 19 -25 l-6 35 14 -35 c27 -65 14 -201 -19 -214 -8 -3 -15 -10
-15 -16 0 -6 5 -8 11 -4 19 12 -7 -29 -33 -51 l-23 -20 20 25 c12 15 4 11 -20
-11 -74 -66 -124 -80 -300 -80 l-154 0 -3 -102 -3 -102 -60 -3 c-33 -2 -79 -1
-102 3 l-43 6 0 373 c0 205 3 376 7 379 3 4 115 7 248 7 178 0 254 -4 286 -14z
m815 -10 c36 -13 78 -35 93 -48 15 -12 9 -6 -12 15 -22 20 -37 37 -33 37 11 0
96 -82 96 -92 0 -5 -5 -6 -12 -2 -7 4 -8 3 -4 -5 4 -6 12 -9 17 -5 11 6 39
-56 38 -83 0 -10 -5 -3 -10 16 -14 48 -19 34 -8 -24 9 -44 7 -86 -7 -150 -2
-11 3 -7 12 10 l15 30 -6 -28 c-8 -37 -45 -95 -81 -127 l-29 -25 26 30 c15 17
34 44 43 60 17 29 17 30 0 5 -10 -14 -35 -42 -57 -62 -35 -35 -38 -43 -13 -39
5 1 6 -5 2 -14 -3 -9 -2 -13 4 -10 5 3 14 -3 19 -14 14 -25 14 -34 0 -25 -8 4
-8 0 0 -15 7 -11 14 -21 17 -21 3 0 2 5 -1 10 -3 6 -4 10 0 10 7 0 45 -62 45
-73 0 -5 -5 -5 -12 -1 -7 4 -8 3 -4 -5 4 -6 11 -9 16 -6 5 3 14 -4 20 -15 7
-13 7 -20 0 -20 -5 0 -10 5 -10 12 0 6 -3 9 -6 6 -3 -3 0 -15 7 -26 25 -40 6
-52 -79 -52 -48 0 -83 5 -92 13 -12 10 -12 9 -1 -6 11 -13 31 -17 95 -19 l81
-2 -79 -3 c-65 -3 -82 -1 -98 14 -27 25 -50 71 -42 85 5 7 3 8 -6 3 -10 -6
-12 -4 -7 9 4 9 3 15 -2 12 -5 -4 -23 19 -40 49 l-31 55 -100 0 -100 0 -2 -97
-2 -98 -6 100 -6 100 -3 -102 c-2 -57 -4 -109 -5 -115 -1 -9 -26 -13 -91 -13
-65 0 -90 4 -91 13 -1 6 -3 182 -5 390 l-4 377 -5 -380 -5 -380 -3 383 -2 382
250 0 c238 0 252 -1 316 -24z m1143 -88 c-6 -12 -15 -33 -20 -47 -5 -17 -8
-20 -8 -8 -1 18 25 77 35 77 2 0 -1 -10 -7 -22z m-62 -310 c-2 -24 -4 -5 -4
42 0 47 2 66 4 43 2 -24 2 -62 0 -85z m163 19 c13 -10 21 -17 16 -17 -14 0
-96 63 -96 74 0 5 12 -2 28 -16 15 -14 38 -32 52 -41z m135 -44 l50 -13 -43 5
c-24 3 -58 12 -75 20 -22 10 -24 13 -7 8 14 -3 48 -12 75 -20z m-6492 -50
c-45 -2 -122 -2 -170 0 -48 1 -11 3 82 3 94 0 133 -2 88 -3z m4402 -23 c-10
-11 -22 -20 -28 -20 -5 0 1 9 14 20 31 25 37 25 14 0z m1818 -60 c3 -34 2 -47
-3 -35 -8 19 -14 103 -6 94 2 -2 6 -29 9 -59z m-1898 19 c-22 -10 -53 -18 -70
-18 -25 1 -23 3 12 10 24 4 51 13 60 18 10 6 23 10 28 10 6 0 -8 -9 -30 -20z
m-332 -190 c-4 -5 -6 33 -3 84 l5 92 3 -84 c2 -46 -1 -88 -5 -92z m2537 141
c34 -8 34 -8 5 -8 -16 -1 -41 6 -55 14 -16 10 -18 13 -5 8 11 -4 36 -10 55
-14z m173 9 c-6 -6 -30 -12 -54 -15 l-44 -3 44 9 c24 5 46 12 49 15 3 3 8 5
11 5 3 0 0 -5 -6 -11z m-1146 -152 c89 -45 202 -56 338 -32 17 2 8 -2 -20 -10
-97 -28 -246 -12 -331 37 -46 26 -124 91 -124 103 0 4 20 -11 44 -33 24 -22
66 -52 93 -65z m1355 51 c-7 -7 -12 -8 -12 -2 0 14 12 26 19 19 2 -3 -1 -11
-7 -17z m-617 -18 c10 -11 16 -20 13 -20 -3 0 -13 9 -23 20 -10 11 -16 20 -13
20 3 0 13 -9 23 -20z m-295 -25 c0 -6 -56 -35 -67 -35 -4 1 8 9 27 20 39 22
40 22 40 15z m830 -15 c-14 -10 -47 -24 -75 -31 -68 -16 -231 -23 -280 -11
-30 7 -14 8 61 4 112 -5 218 10 274 39 45 23 51 23 20 -1z m-2907 -27 c-24 -2
-62 -2 -85 0 -24 2 -5 4 42 4 47 0 66 -2 43 -4z"/>
<path d="M1174 990 c0 -162 2 -229 3 -147 2 81 2 213 0 295 -1 81 -3 14 -3
-148z"/>
<path d="M863 893 c20 -2 54 -2 75 0 20 2 3 4 -38 4 -41 0 -58 -2 -37 -4z"/>
<path d="M6802 1019 c-45 -6 -128 -46 -117 -57 2 -2 17 6 34 19 22 16 48 23
104 27 41 2 82 0 92 -5 13 -8 4 -9 -33 -5 -80 7 -138 -6 -176 -38 -18 -16 -36
-27 -39 -24 -3 3 -10 -5 -17 -18 -11 -23 -11 -23 6 -3 l17 20 -8 -20 c-35 -91
-38 -123 -21 -189 10 -36 24 -70 32 -77 17 -14 19 -33 2 -24 -7 4 1 -7 19 -23
38 -36 120 -58 185 -48 42 6 133 54 123 65 -3 2 -13 -3 -23 -12 -42 -38 -149
-58 -197 -37 -13 6 -4 7 26 3 59 -7 147 18 178 51 13 14 28 23 32 20 4 -2 13
6 19 18 11 22 10 22 -4 4 -20 -25 -20 -21 0 38 16 46 16 133 0 181 -3 11 1 4
10 -15 12 -26 15 -53 11 -105 -2 -40 -1 -61 4 -50 13 34 10 120 -6 166 -36
101 -132 154 -253 138z m207 -73 c40 -42 19 -36 -24 7 -22 22 -31 35 -20 29
11 -5 31 -22 44 -36z m-288 -343 c13 -15 12 -15 -8 -4 -24 12 -29 21 -14 21 5
0 15 -7 22 -17z"/>
<path d="M7216 987 c3 -10 9 -15 12 -12 3 3 0 11 -7 18 -10 9 -11 8 -5 -6z"/>
<path d="M6626 875 c-9 -26 -7 -32 5 -12 6 10 9 21 6 23 -2 3 -7 -2 -11 -11z"/>
<path d="M6612 785 c0 -16 3 -39 8 -50 l9 -20 -1 20 c0 11 -4 34 -8 50 l-8 30
0 -30z"/>
<path d="M6635 690 c4 -14 14 -32 22 -40 10 -11 9 -5 -3 20 -22 45 -28 52 -19
20z"/>
<path d="M4855 790 c0 -206 1 -291 2 -188 2 104 2 272 0 375 -1 104 -2 19 -2
-187z"/>
<path d="M5465 1124 c6 -5 23 -20 40 -34 29 -24 29 -24 10 -2 -11 13 -29 28
-40 34 -11 6 -15 6 -10 2z"/>
<path d="M5050 900 c0 -143 18 -145 23 -2 l3 107 2 -107 2 -108 98 -2 97 -2
-110 -6 -110 -7 132 1 c123 1 134 3 155 23 18 18 21 32 19 75 -1 29 -5 61 -8
72 -4 14 -2 16 8 10 10 -6 10 -3 -1 11 -28 34 -74 45 -195 45 l-115 0 0 -110z
m286 75 c25 -19 14 -19 -22 0 -16 8 -22 15 -13 15 8 0 24 -7 35 -15z m9 -165
c-10 -11 -25 -20 -34 -19 -11 0 -9 3 5 9 12 5 25 13 29 19 3 6 9 11 12 11 3 0
-2 -9 -12 -20z"/>
<path d="M5582 895 c-1 -27 -5 -61 -7 -75 l-6 -25 11 25 c6 13 9 47 7 75 l-3
50 -2 -50z"/>
<path d="M5372 890 c0 -19 2 -27 5 -17 2 9 2 25 0 35 -3 9 -5 1 -5 -18z"/>
<path d="M5842 903 l2 -108 6 105 6 105 2 -103 2 -104 126 4 c120 3 127 4 146
28 16 20 19 35 16 77 -3 36 -1 50 6 46 6 -4 4 1 -4 12 -28 34 -74 45 -195 45
l-115 0 2 -107z m284 71 c19 -15 19 -15 -1 -6 -11 5 -27 12 -35 15 -13 5 -13
6 1 6 8 1 24 -6 35 -15z"/>
<path d="M6162 889 c-2 -35 -8 -51 -28 -70 -24 -22 -35 -24 -162 -30 l-137 -5
123 -2 c173 -3 219 22 209 114 l-4 39 -1 -46z"/>
<path d="M5898 623 c34 -2 90 -2 125 0 34 2 6 3 -63 3 -69 0 -97 -1 -62 -3z"/>
<path d="M6100 560 c6 -11 13 -20 16 -20 2 0 0 9 -6 20 -6 11 -13 20 -16 20
-2 0 0 -9 6 -20z"/>
<path d="M5703 393 c26 -2 67 -2 90 0 23 2 2 3 -48 3 -49 0 -68 -1 -42 -3z"/>
<path d="M7572 1025 c-18 -8 -31 -18 -30 -22 1 -4 -1 -18 -6 -30 -4 -13 -2
-32 5 -45 12 -22 11 -22 -6 -8 -14 11 -17 11 -11 1 14 -23 87 -49 171 -61 90
-13 197 -43 235 -66 14 -9 39 -32 56 -51 l31 -35 2 111 2 111 -87 0 c-68 0
-92 4 -106 17 -18 16 -19 16 -12 -3 5 -15 4 -16 -5 -4 -15 21 -14 43 2 35 6
-4 -3 7 -21 23 -50 44 -152 57 -220 27z m186 -15 c23 -10 42 -21 42 -24 0 -3
-19 4 -42 14 -47 21 -114 25 -166 11 -37 -11 -43 -5 -9 9 39 16 129 11 175
-10z m-98 -126 l55 -13 -50 5 c-27 3 -63 12 -80 20 -24 11 -25 12 -5 7 14 -3
50 -12 80 -19z m169 -30 c77 -23 58 -26 -24 -4 -39 10 -61 19 -49 19 11 1 44
-6 73 -15z m166 -95 c11 -12 -1 -5 -27 16 -27 22 -48 41 -48 43 0 7 56 -36 75
-59z"/>
<path d="M7511 954 c0 -11 3 -14 6 -6 3 7 2 16 -1 19 -3 4 -6 -2 -5 -13z"/>
<path d="M8011 954 c0 -11 3 -14 6 -6 3 7 2 16 -1 19 -3 4 -6 -2 -5 -13z"/>
<path d="M7822 620 c0 -14 2 -19 5 -12 2 6 2 18 0 25 -3 6 -5 1 -5 -13z"/>
</g>
</svg>
